<?xml version="1.0" standalone="no"?>
<!DOCTYPE svg PUBLIC "-//W3C//DTD SVG 20010904//EN"
 "http://www.w3.org/TR/2001/REC-SVG-20010904/DTD/svg10.dtd">
<svg version="1.0" xmlns="http://www.w3.org/2000/svg"
 width="512.000000pt" height="512.000000pt" viewBox="0 0 512.000000 512.000000"
 preserveAspectRatio="xMidYMid meet">
<metadata>
Created by potrace 1.14, written by Peter Selinger 2001-2017
</metadata>
<g transform="translate(0.000000,512.000000) scale(0.100000,-0.100000)"
fill="#000000" stroke="none">
<path d="M2370 5067 c-3 -3 -41 -8 -85 -11 -107 -9 -128 -12 -247 -36 -881
-179 -1610 -819 -1900 -1670 -26 -77 -54 -177 -64 -223 -2 -10 -5 -26 -8 -35
-3 -9 -8 -30 -11 -47 -3 -16 -7 -41 -10 -55 -50 -276 -52 -595 -5 -875 54
-317 159 -595 341 -905 35 -60 177 -252 224 -305 24 -27 45 -54 45 -58 0 -11
32 15 119 95 l71 66 -56 69 c-74 90 -174 229 -174 241 0 6 -4 12 -8 14 -22 9
-156 276 -207 413 -38 101 -100 333 -111 415 -3 25 -8 54 -10 65 -18 88 -24
373 -11 525 7 87 10 108 28 196 5 28 12 64 15 80 30 171 136 447 250 645 359
625 1015 1059 1714 1136 131 14 494 8 610 -10 615 -99 1152 -429 1512 -932
102 -142 197 -312 247 -441 l16 -42 90 35 c50 19 102 40 117 47 l27 12 -38 85
c-57 130 -137 272 -219 394 -133 195 -326 406 -503 549 -351 283 -816 486
-1244 542 -27 3 -59 8 -70 11 -27 6 -439 15 -445 10z"/>
<path d="M2357 3103 c-239 -49 -421 -232 -471 -474 -24 -118 -13 -246 31 -359
69 -176 204 -301 388 -362 58 -19 91 -22 190 -22 104 0 131 4 198 27 197 68
324 200 394 407 9 26 17 95 19 165 3 105 1 130 -20 196 -68 223 -229 369 -471
426 -47 11 -195 9 -258 -4z m259 -207 c130 -43 229 -158 258 -299 41 -199 -49
-395 -220 -481 -183 -92 -414 -9 -505 182 -40 84 -49 129 -45 225 3 77 8 103
33 157 40 85 98 149 172 189 97 51 206 61 307 27z"/>
</g>
</svg>
